<svg xmlns="http://www.w3.org/2000/svg" viewBox="0 0 145.8 50.4">
	<g id="svg-group-tennessee">
		<path id="react-usa-svg-tennessee" d="M112.2,4.8l-51.9,5L44.5,11.6l-4.6.5H36V16l-8.4.5-7,.6-11.1.1L9.2,23,7.1,29.3l-1,3L4.8,36.7l-.3,2.6-4,2.3L2,45.2,1,49.6l-1,.8,7.3-.2,24.1-1.9,5.3-.2,8.1-.5L72.6,45l10.2-.8,8.4-1,8.4-1.1,4.8-.8-.1-4.5,1.8-1.5,2.7-.6.6-3.7,4.2-2.7,3.9-1.5,4.2-3.6,4.4-2.1.9-3.5,4.3-3.9.6-.2s0,1.1.8,1.1a9,9,0,0,1,1.9.3l2.3-3.6,2.1-.6,2.3.3,1.6-3.6L145,5.2l.6-1,.2-3.9L144.3,0l-2.4,1.9-7.9.2L122,4Z" />
	</g>
</svg>
