<svg xmlns="http://www.w3.org/2000/svg" viewBox="0 0 139.6 238.6">
	<path id="react-usa-svg-california" d="M122.9,238.6l3.8-.5,1.5-2,.7-1.9-3.2-.1-1.1-1.8.8-1.7v-6.2l2.2-1.3,2.7-2.6.4-4.9,1.6-3.5,1.9-2.1,3.3-1.7,1.3-.7.8-1.5-.9-.9-1-1.5-.9-5.3-2.9-5.2.1-2.8-2.2-3.2-15-23.2L97.4,135.3,75,102.3,62.3,82.8l1.8-7.2,6.8-25.9L79,18.3,66.6,15,53.1,11.6,40.5,7.5,33,5.4l-11.4-3L14.5,0,12.9,4.7l-.2,7.4L7.5,23.9,4.4,26.5l-.3,1.1-1.8.8L.8,32.6,0,35.8,2.7,40l1.6,4.2,1.1,3.6-.3,6.5L3.3,57.4l-.6,5.8-1,3.7,1.8,3.9,2.7,4.5,2.3,4.8,1.3,4-.3,3.2-.3.5v2.1l5.7,6.3-.5,2.4-.6,2.3-.6,1.9.2,8.2,2.1,3.7,1.9,2.6,2.7.5,1,2.7L20,124.1l-2.1,1.6H16.8l-.8,3.9.5,2.9,3.2,4.4,1.6,5.3,1.5,4.7,1.3,3.1,3.4,5.8,1.5,2.6.5,2.9,1.6,1v2.4l-.8,1.9-1.8,7.1-.5,1.9,2.4,2.7,4.2.5,4.5,1.8,3.9,2.1h2.9l2.9,3.1,2.6,4.8,1.1,2.3,3.9,2.1,4.8.8,1.5,2.1.6,3.2-1.5.6.3,1,3.2.8,2.7.2,2.9,4.7,3.9,4.2.8,2.3,2.6,4.2.3,3.2v9.4l.5,1.8L89,235l19.7,2.7ZM35,188.8l1.3,1.5-.2,1.3-3.2-.1-.6-1.2-.6-1.5Zm1.9,0,1.2-.6,3.6,2.1,3.1,1.2-.9.6-4.5-.2-1.6-1.6Zm20.7,19.8,1.8,2.3.8,1,1.5.6.6-1.5-1-1.8-2.7-2-1.1.2v1.2Zm-1.4,8.7,1.8,3.2,1.2,1.9-1.5.2-1.3-1.2a9.72,9.72,0,0,1-.7-1.9v-2.2Z" />
</svg>
