<svg xmlns="http://www.w3.org/2000/svg" viewBox="0 0 159.3 134.3">
	<g id="svg-group-florida">
		<path id="react-usa-svg-florida" d="M116.7.8,119,8.1l3.7,9.7,5.3,9.4,3.7,6.3,4.8,5.5,4,3.7,1.6,2.9L141,46.9l-.7,1.4,2.9,7.4,2.9,2.9,2.6,5.3,3.6,5.8,4.5,8.2,1.3,7.6.5,12,.6,1.8-.3,3.4-2.4,1.3.3,1.9-.6,1.9.3,2.4.5,1.9-2.7,3.2-3.1,1.5-3.9.2-1.5,1.6-2.4,1-1.3-.5-1.1-1-.3-2.9-.8-3.4-3.4-5.2-3.6-2.3L129,104l-.8,1.3-3.1-4.4-.6-3.6-2.6-4-1.8-1.1-1.6,2.1-1.8-.3-2.1-5-2.9-3.9-2.9-5.3-2.6-3.1L102.6,73l2.1-2.4,3.2-5.5-.2-1.6-4.5-1-1.6.6.3.6,2.6,1L103,69.2l-.8.5-1.8-4-1.3-4.8-.3-2.7,1.5-4.7V44l-3-3.7L96,37.2l-5.2-1.3-1.9-.6-1.6-2.6-3.4-1.6-1.1-3.4-2.7-1L77.7,23l-4.2-1.5L70.6,20H68l-4,.8-.2,1.9.8,1-.5,1.1L61,24.6l-3.7,3.6-3.6,1.9H49.8l-3.2,1.3-.3-2.7-1.6-1.9-2.9-1.1-1.6-1.5-8.1-3.9-7.6-1.8-4.4.6-6,.5-6,2.1-3.5.6-.2-8L1.8,12.4,0,10.6.3,7.5,10.5,6.2,36,3.3l6.8-.6,5.4.3,2.6,3.9,1.5,1.5,8.1.5,10.8-.6L92.7,7l5.4-.7h4.6l.2,2.9,3.8.8.3-4.8L105.4.7l1-.7,5.1.5Zm12.5,132.4,2.4-.6,1.3-.2,1.5-2.3,2.3-1.6,1.3.5,1.7.3.4,1.1-3.5,1.2-4.2,1.5-2.3,1.2Zm13.5-5,1.2,1.1,2.7-2.1,5.3-4.2,3.7-3.9,2.5-6.6,1-1.7.2-3.4-.7.5-1,2.8-1.5,4.6-3.2,5.3-4.4,4.2-3.4,1.9Z" />
	</g>
</svg>
