<svg xmlns="http://www.w3.org/2000/svg" viewBox="0 0 104.2 68.2">
	<g id="svg-group-iowa">
		<path id="react-usa-svg-iowa" d="M95.7,21.1l.2,1.9,2.3,1.1,1.1,1.3.3,1.3,3.9,3.2.7,2.2-.8,2.9-1.5,3.5-.8,2.7-2.2,1.6-1.7.6-5.5,1.5L91,47.2l-.8,2.3.6,1.4,1.7,1.7v3.7l-2.2,1.6-.5,1.5v2.5l-1.5.5-1.7,1.4-.5,1.5.5,1.7-1.4,1.2-2.3-2.7-1.5-2.6-8.3.8-10.2.6-25,.7-13,.2-9.4.2-1.3.1L12.5,61l-.2-6.6-1.6-4.1L10,45,7.7,41.3l-.9-4.8L4.1,29,3,23.6,1.6,21.4,0,18.7l1.8-4.3L3.2,8.7.5,6.6,0,3.9.9,1.4H14.1L63.7.7,83.6,0l1.9,2.7,1.8,2.6.5.8L86,8.8l.5,4.2L89,16.9l3,1.8,2.4.2Z" />
	</g>
</svg>
