<svg xmlns="http://www.w3.org/2000/svg" viewBox="0 0 63 100.2">
	<g id="svg-group-maine">
		<path id="react-usa-svg-maine" d="M58.8,40.4l1.9,2.1L63,46.2v1.9l-2.1,4.7-1.9.6-3.4,3.1L50.8,62H49.5c-.6,0-1-2.1-1-2.1l-1.8.2-1,1.5-2.4,1.5-1,1.5,1.6,1.5-.5.6-.5,2.7L41,69.2V67.6l-.3-1.3-1.5.3-1.8-3.2-2.1,1.3,1.3,1.5.3,1.1-.8,1.3.3,3.1.2,1.6L35,75.9l-2.9.5-.3,2.9-5.3,3.1-1.3.5-1.6-1.5L20.5,85l1,3.2L20,89.5l-.2,4.4-1.1,6.3L16.2,99l-.5-3.1-3.9-1.1-.3-2.7L4.2,68.7,0,55.1,1.4,55l1.5.4V52.8l.8-5.5,2.6-4.7,1.5-4L5.9,36.2v-6l.8-1,.8-2.7L7.3,25l-.2-4.8,1.8-4.8,2.9-8.9,2.1-4.2h1.3l1.3.2V3.6l1.3,2.3,2.7.6.8-.8v-1l4-2.9L27.1,0l1.5.2,6,2.4,1.9,1,9.1,29.9h6l.8,1.9.2,4.8,2.9,2.3h.8l.2-.5L56,40.9ZM37.9,70.6l1.5-1.5,1.4,1.1.6,2.4-1.7.9Zm6.7-5.9,1.8,1.9s1.3.1,1.3-.2.2-2,.2-2l.9-.8L48,61.8l-2,.7Z" />
	</g>
</svg>
