<svg xmlns="http://www.w3.org/2000/svg" viewBox="0 0 23.5 53.6">
	<g id="svg-group-new-jersey">
		<path id="react-usa-svg-new-jersey" d="M5.4,0,3.3,2.4V5.5L1.4,8.6l-.2,1.6,1.3,1.3-.2,2.4L0,15l.8,2.7L1,18.8l2.7.3,1,2.6,3.6,2.4,2.4,1.6v.8L7.5,29.6,5.9,31.9,4.4,34.6,2.1,35.9l-1.2.7L.7,37.8.1,40.4l1.1,2.2,3.2,2.9,4.8,2.3,4,.6.2,1.5-.8,1,.3,2.7h.8l2.1-2.4.8-4.8,2.7-4,3.1-6.5,1.1-5.5-.6-1.1-.2-9.4-1.6-3.4-1.1.8-2.7.3-.5-.5,1.1-1L20,14.2l.1-1.1-.4-3.4L20.2,7,20,4.9,17.4,3.8l-4.5-1L9,1.7Z" />
	</g>
</svg>
